<svg xmlns="http://www.w3.org/2000/svg" viewBox="0 0 512 512"><style>@media (prefers-color-scheme:dark){.logoicon{fill:#fff}}</style><path fill="#1d1f21" d="M499.54 250.92V62.01C499.54 31.08 474.61 6 443.85 6c-4.36 0-7.89 3.55-7.89 7.94v101.33c0 5.65-5.65 9.59-10.87 7.51-14.45-5.75-31-8.89-49.69-8.89-54.1 0-85.87 29.34-114.89 69.45-3.23 4.46-9.86 4.39-13.01-.12-27.61-39.5-61.68-69.34-113.67-69.34-80.53 0-121.51 68.7-121.51 142.47 0 2.96.05 5.89.15 8.81v184.83c0 30.93 24.93 56.01 55.68 56.01 4.36 0 7.89-3.55 7.89-7.94V401.1c0-5.6 5.53-9.43 10.77-7.55 13.36 4.78 28.68 7.37 46.11 7.37 51.91 0 91.49-29.12 119.9-70.15 3.21-4.63 10.05-4.67 13.2 0 25.8 38.22 59.53 69.43 108.48 69.43 87 0 125.1-62.92 125.1-143.92.01-1.79-.02-3.58-.06-5.36zm-366.07 76.24c-38.09 0-51.74-38.31-51.74-70.84 0-30.36 16.53-67.95 51.74-67.95 43.1 0 61.32 30.44 78.73 64.49a8.036 8.036 0 0 1 .16 7c-16.7 36.76-33.62 67.3-78.89 67.3zm241.46 0c-38.03 0-56.76-34.13-72.21-64.39a8.081 8.081 0 0 1-.07-7.19c21.42-44.5 37.99-65.75 72.28-65.75 38.81 0 56.77 31.08 56.77 66.5.01 36.86-15.8 70.83-56.77 70.83z" class="logoicon"/></svg>
